<?xml version="1.0" standalone="no"?>
<!DOCTYPE svg PUBLIC "-//W3C//DTD SVG 20010904//EN"
 "http://www.w3.org/TR/2001/REC-SVG-20010904/DTD/svg10.dtd">
<svg version="1.0" xmlns="http://www.w3.org/2000/svg"
 width="200.000000pt" height="200.000000pt" viewBox="0 0 200.000000 200.000000"
 preserveAspectRatio="xMidYMid meet">

<g transform="translate(0.000000,200.000000) scale(0.100000,-0.100000)"
fill="#000000" stroke="none">
<path d="M29 1821 l-29 -29 0 -622 0 -622 29 -29 29 -29 391 0 391 0 0 -110 0
-110 -140 0 -140 0 0 -60 0 -60 440 0 440 0 0 60 0 60 -140 0 -140 0 0 110 0
110 391 0 391 0 29 29 29 29 0 622 0 622 -29 29 -29 29 -942 0 -942 0 -29 -29z
m1841 -627 c0 -425 -3 -534 -12 -528 -7 4 -27 18 -44 31 -28 21 -41 23 -150
23 l-119 -1 30 -27 c17 -15 46 -39 65 -54 l35 -27 -51 -1 c-46 0 -57 5 -124
55 l-74 55 -426 0 -426 0 -74 -55 c-67 -50 -78 -55 -124 -55 l-51 1 35 27 c19
15 48 39 65 54 l30 27 -119 1 c-109 0 -122 -2 -150 -23 -17 -13 -37 -27 -43
-31 -10 -6 -13 103 -13 528 l0 536 870 0 870 0 0 -536z"/>
<path d="M1030 1555 c0 -2 -34 -146 -75 -318 -41 -173 -75 -317 -75 -321 0 -3
19 -6 43 -6 l43 0 73 303 c40 166 75 312 78 325 5 20 2 22 -41 22 -25 0 -46
-2 -46 -5z"/>
<path d="M620 1376 l-215 -93 0 -53 0 -53 215 -93 215 -93 3 56 c2 31 -1 59
-5 63 -7 6 -105 46 -273 112 -22 9 -9 16 120 65 80 30 149 58 153 62 4 5 7 33
5 64 l-3 56 -215 -93z"/>
<path d="M1162 1403 l3 -56 143 -55 c78 -31 142 -58 142 -62 0 -4 -64 -31
-142 -62 l-143 -55 -3 -61 c-2 -34 -2 -62 0 -62 2 0 100 42 218 94 l215 94 0
52 0 53 -205 88 c-113 49 -211 89 -218 89 -9 0 -12 -15 -10 -57z"/>
</g>
</svg>
